<svg id="Layer_1" data-name="Layer 1" xmlns="http://www.w3.org/2000/svg" viewBox="0 0 32 32"><defs><style>.cls-1{opacity:0.9;}.cls-2{fill:#236eb4;}.cls-3{fill:#e52729;}</style></defs><title>Blueprint</title><g class="cls-1"><path class="cls-2" d="M23.4276,26.9387a.88.88,0,0,1-.44-1.6421l4.2724-2.469a.5664.5664,0,0,0,.2815-.49V9.6643a.5664.5664,0,0,0-.2815-.49l-10.9787-6.34a.5728.5728,0,0,0-.5659,0L13.0207,4.392a.5664.5664,0,0,0-.2815.49V16.9981a.5664.5664,0,0,0,.2815.49l4.2841,2.472a.88.88,0,1,1-.88,1.5248L12.141,19.01A2.3323,2.3323,0,0,1,10.98,16.9952V4.8817A2.34,2.34,0,0,1,12.141,2.8672L14.8388,1.31a2.3347,2.3347,0,0,1,2.3253,0L28.14,7.65a2.3323,2.3323,0,0,1,1.1612,2.0145V22.3408A2.34,2.34,0,0,1,28.14,24.3553l-4.2724,2.4661A.8914.8914,0,0,1,23.4276,26.9387Z"/></g><g class="cls-1"><path class="cls-3" d="M16,31a2.3065,2.3065,0,0,1-1.1612-.3108L3.86,24.3524a2.3323,2.3323,0,0,1-1.1612-2.0145V9.6643A2.34,2.34,0,0,1,3.86,7.65L8.1325,5.1837a.88.88,0,1,1,.88,1.5248L4.74,9.1746a.5664.5664,0,0,0-.2815.49V22.3408a.5664.5664,0,0,0,.2815.49l10.9787,6.3368a.5728.5728,0,0,0,.5659,0L18.9793,27.61a.5664.5664,0,0,0,.2815-.49V15.0041a.5664.5664,0,0,0-.2815-.49l-4.2636-2.46a.88.88,0,0,1,.88-1.5248l4.2636,2.46A2.3261,2.3261,0,0,1,21.02,15.0041V27.1205A2.34,2.34,0,0,1,19.859,29.135l-2.6948,1.5571A2.3524,2.3524,0,0,1,16,31Z"/></g></svg>